<?xml version="1.0" encoding="utf-8"?>
<!-- Generator: Adobe Illustrator 16.0.3, SVG Export Plug-In . SVG Version: 6.00 Build 0)  -->
<!DOCTYPE svg PUBLIC "-//W3C//DTD SVG 1.1//EN" "http://www.w3.org/Graphics/SVG/1.1/DTD/svg11.dtd">
<svg version="1.1" id="レイヤー_1" xmlns="http://www.w3.org/2000/svg" xmlns:xlink="http://www.w3.org/1999/xlink" x="0px"
	 y="0px" width="160px" height="160px" viewBox="0 0 160 160" enable-background="new 0 0 160 160" xml:space="preserve">
<linearGradient id="SVGID_1_" gradientUnits="userSpaceOnUse" x1="46.6514" y1="39.4746" x2="113.6375" y2="119.3056">
	<stop  offset="0" style="stop-color:#FFFFFF"/>
	<stop  offset="0.0157" style="stop-color:#FFFEFA"/>
	<stop  offset="0.0508" style="stop-color:#FFFCF0"/>
	<stop  offset="0.0843" style="stop-color:#FFFBEC"/>
	<stop  offset="0.1462" style="stop-color:#FAF1CE"/>
	<stop  offset="0.2713" style="stop-color:#F2DE98"/>
	<stop  offset="0.3978" style="stop-color:#EACE6A"/>
	<stop  offset="0.523" style="stop-color:#E4C044"/>
	<stop  offset="0.6467" style="stop-color:#DFB626"/>
	<stop  offset="0.7684" style="stop-color:#DCAF11"/>
	<stop  offset="0.8872" style="stop-color:#DAAA04"/>
	<stop  offset="1" style="stop-color:#D9A900"/>
</linearGradient>
<circle fill="url(#SVGID_1_)" stroke="#D5AC18" stroke-width="0.4122" cx="80.145" cy="79.391" r="52.105"/>
<linearGradient id="SVGID_2_" gradientUnits="userSpaceOnUse" x1="45.2886" y1="52.0854" x2="115.9247" y2="122.7215" gradientTransform="matrix(0.9995 -0.0324 0.0324 0.9995 -3.2539 -5.3584)">
	<stop  offset="0" style="stop-color:#F6DF77"/>
	<stop  offset="0.0381" style="stop-color:#F7E07A"/>
	<stop  offset="0.07" style="stop-color:#F7E285"/>
	<stop  offset="0.0998" style="stop-color:#F9E696"/>
	<stop  offset="0.1282" style="stop-color:#FAEBAD"/>
	<stop  offset="0.1553" style="stop-color:#FCF3C9"/>
	<stop  offset="0.1798" style="stop-color:#FEFAE8"/>
	<stop  offset="0.2237" style="stop-color:#FBEEB9"/>
	<stop  offset="0.2718" style="stop-color:#F8E388"/>
	<stop  offset="0.3193" style="stop-color:#F5DA5B"/>
	<stop  offset="0.365" style="stop-color:#F2D330"/>
	<stop  offset="0.4085" style="stop-color:#F0CF00"/>
	<stop  offset="0.4489" style="stop-color:#EFCC00"/>
	<stop  offset="0.4831" style="stop-color:#EFCB00"/>
	<stop  offset="0.5135" style="stop-color:#E9C400"/>
	<stop  offset="0.5935" style="stop-color:#DEB600"/>
	<stop  offset="0.6629" style="stop-color:#DAB100"/>
	<stop  offset="0.8146" style="stop-color:#EFCB00"/>
	<stop  offset="0.8488" style="stop-color:#F3D540"/>
	<stop  offset="0.886" style="stop-color:#F7E07A"/>
	<stop  offset="0.921" style="stop-color:#F9E9A2"/>
	<stop  offset="0.9528" style="stop-color:#FBEFBD"/>
	<stop  offset="0.9801" style="stop-color:#FCF3CD"/>
	<stop  offset="1" style="stop-color:#FDF5D2"/>
</linearGradient>
<path fill="url(#SVGID_2_)" d="M30.197,81.008c0.893,27.539,24.023,49.219,51.564,48.328c27.539-0.893,49.221-24.025,48.33-51.563
	c-0.893-27.541-24.025-49.221-51.564-48.33C50.986,30.336,29.307,53.469,30.197,81.008z"/>
<linearGradient id="SVGID_3_" gradientUnits="userSpaceOnUse" x1="102.8008" y1="106.3936" x2="57.4861" y2="52.3897">
	<stop  offset="0.0674" style="stop-color:#FFFBEC"/>
	<stop  offset="0.1123" style="stop-color:#FAF1D0"/>
	<stop  offset="0.1989" style="stop-color:#F3E0A0"/>
	<stop  offset="0.2904" style="stop-color:#ECD275"/>
	<stop  offset="0.3853" style="stop-color:#E6C551"/>
	<stop  offset="0.4843" style="stop-color:#E1BB33"/>
	<stop  offset="0.5891" style="stop-color:#DEB31D"/>
	<stop  offset="0.7021" style="stop-color:#DBAD0C"/>
	<stop  offset="0.8292" style="stop-color:#D9AA03"/>
	<stop  offset="1" style="stop-color:#D9A900"/>
</linearGradient>
<path fill="url(#SVGID_3_)" d="M44.879,79.393c0,19.443,15.818,35.262,35.264,35.262s35.266-15.818,35.266-35.262
	s-15.82-35.266-35.266-35.266S44.879,59.949,44.879,79.393z"/>
<path fill="#FFFFFF" stroke="#D5AC18" stroke-width="0.4122" d="M113.84,79.393c0-18.611-15.088-33.695-33.697-33.695
	S46.449,60.781,46.449,79.393c0,18.607,15.084,33.691,33.693,33.691S113.84,98,113.84,79.393z"/>
<g>
	<polygon fill-rule="evenodd" clip-rule="evenodd" fill="#C81042" points="88.828,67.779 73.539,94.07 86.748,94.07 102.18,68.482 	
		"/>
	<linearGradient id="SVGID_4_" gradientUnits="userSpaceOnUse" x1="65.6831" y1="60.9067" x2="79.1378" y2="74.3614">
		<stop  offset="0.0056" style="stop-color:#FDEFF3"/>
		<stop  offset="0.0762" style="stop-color:#F7C3D1"/>
		<stop  offset="0.1491" style="stop-color:#F097B0"/>
		<stop  offset="0.2208" style="stop-color:#EB6E96"/>
		<stop  offset="0.2897" style="stop-color:#E84A84"/>
		<stop  offset="0.3551" style="stop-color:#E62777"/>
		<stop  offset="0.4156" style="stop-color:#E50070"/>
		<stop  offset="0.4663" style="stop-color:#E5006E"/>
	</linearGradient>
	<path fill-rule="evenodd" clip-rule="evenodd" fill="url(#SVGID_4_)" d="M88.41,68.482l-3.818-3.813h-22.67l-3.814,3.813H88.41z"/>
	<linearGradient id="SVGID_5_" gradientUnits="userSpaceOnUse" x1="84.0166" y1="71.5586" x2="72.8011" y2="55.5411">
		<stop  offset="0.0169" style="stop-color:#FFFFFF"/>
		<stop  offset="0.0654" style="stop-color:#FBD7E8"/>
		<stop  offset="0.1648" style="stop-color:#F38CBD"/>
		<stop  offset="0.2536" style="stop-color:#ED509B"/>
		<stop  offset="0.3287" style="stop-color:#E92483"/>
		<stop  offset="0.3869" style="stop-color:#E60A74"/>
		<stop  offset="0.4213" style="stop-color:#E5006E"/>
		<stop  offset="1" style="stop-color:#C81042"/>
	</linearGradient>
	<polygon fill-rule="evenodd" clip-rule="evenodd" fill="url(#SVGID_5_)" points="88.41,68.482 93.338,59.643 66.945,59.643 
		61.689,64.898 84.824,64.898 	"/>
	<linearGradient id="SVGID_6_" gradientUnits="userSpaceOnUse" x1="87.9316" y1="66.6968" x2="100.7783" y2="63.2545">
		<stop  offset="0.0056" style="stop-color:#FFFFFF"/>
		<stop  offset="0.322" style="stop-color:#DB6384"/>
		<stop  offset="0.5" style="stop-color:#C81042"/>
	</linearGradient>
	<polygon fill-rule="evenodd" clip-rule="evenodd" fill="url(#SVGID_6_)" points="88.41,68.482 102.18,68.482 93.338,59.643 	"/>
	<linearGradient id="SVGID_7_" gradientUnits="userSpaceOnUse" x1="78.4126" y1="88.2627" x2="56.7584" y2="70.0927">
		<stop  offset="0.0056" style="stop-color:#FFFFFF"/>
		<stop  offset="0.1152" style="stop-color:#FACBE2"/>
		<stop  offset="0.2433" style="stop-color:#F496C3"/>
		<stop  offset="0.3731" style="stop-color:#F068A9"/>
		<stop  offset="0.502" style="stop-color:#EC4394"/>
		<stop  offset="0.6297" style="stop-color:#E92583"/>
		<stop  offset="0.756" style="stop-color:#E71177"/>
		<stop  offset="0.8802" style="stop-color:#E50470"/>
		<stop  offset="1" style="stop-color:#E5006E"/>
	</linearGradient>
	<polygon fill-rule="evenodd" clip-rule="evenodd" fill="url(#SVGID_7_)" points="66.635,68.482 58.107,68.482 73.539,94.07 
		77.461,87.313 	"/>
	<linearGradient id="SVGID_8_" gradientUnits="userSpaceOnUse" x1="81.9346" y1="68.4824" x2="81.9346" y2="59.5966">
		<stop  offset="0" style="stop-color:#FFFFFF"/>
		<stop  offset="0.2798" style="stop-color:#FFFFFF"/>
		<stop  offset="0.3258" style="stop-color:#FFFFFF"/>
		<stop  offset="0.3955" style="stop-color:#FEFAFB"/>
		<stop  offset="0.4823" style="stop-color:#FAEAEF"/>
		<stop  offset="0.5781" style="stop-color:#F4D1DB"/>
		<stop  offset="0.6804" style="stop-color:#ECAEBF"/>
		<stop  offset="0.788" style="stop-color:#E2809B"/>
		<stop  offset="0.8982" style="stop-color:#D5496F"/>
		<stop  offset="1" style="stop-color:#C81042"/>
	</linearGradient>
	<polygon fill-rule="evenodd" clip-rule="evenodd" fill="url(#SVGID_8_)" points="93.338,59.643 66.945,59.643 61.689,64.898 
		84.824,64.898 88.41,68.482 102.18,68.482 	"/>
</g>
<g>
	<path fill="#FFFFFF" d="M68.394,126.162c-0.695-0.065-1.433-0.173-2.102-0.398c-2.853-0.962-4.354-3.057-3.35-6.036
		c1.017-3.018,3.43-4.088,6.422-3.079c0.581,0.195,1.313,0.568,1.872,1.038l-0.629,1.447c-0.541-0.604-1.117-0.896-1.749-1.109
		c-1.817-0.613-3.422,0.393-4.03,2.198c-0.604,1.793,0.051,3.518,1.933,4.152c0.694,0.233,1.565,0.358,2.055,0.284L68.394,126.162z"
		/>
	<path fill="#FFFFFF" d="M76.315,127.146c-0.696,0.267-1.461,0.349-2.411,0.217c-2.243-0.312-3.37-1.787-3.06-4.017
		c0.273-1.967,1.541-3.444,3.652-3.151c2.521,0.351,2.993,2.179,2.663,4.554l-4.698-0.653c-0.073,1.106,0.606,1.833,1.701,1.985
		c0.858,0.119,1.642-0.095,2.353-0.373L76.315,127.146z M75.64,123.299c0.066-0.865-0.227-1.659-1.217-1.796
		c-0.989-0.138-1.586,0.479-1.792,1.378L75.64,123.299z"/>
	<path fill="#FFFFFF" d="M78.924,120.765l1.586-0.014l0.014,1.559h0.026c0.074-0.641,0.798-1.727,1.863-1.735
		c0.173-0.002,0.359-0.004,0.547,0.048l0.016,1.799c-0.16-0.092-0.48-0.143-0.801-0.14c-1.452,0.013-1.436,1.825-1.427,2.811
		l0.022,2.519l-1.785,0.016L78.924,120.765z"/>
	<path fill="#FFFFFF" d="M85.271,121.764l-1.306,0.193l-0.19-1.292l1.305-0.192l-0.201-1.357l1.683-0.828l0.284,1.924l1.568-0.232
		l0.191,1.292l-1.568,0.232l0.468,3.162c0.086,0.58,0.324,1.098,0.996,0.998c0.316-0.047,0.609-0.158,0.776-0.304l0.26,1.39
		c-0.354,0.159-0.754,0.272-1.281,0.351c-1.384,0.205-2.275-0.539-2.474-1.883L85.271,121.764z"/>
	<path fill="#FFFFFF" d="M88.871,116.795l1.728-0.45l0.43,1.649l-1.727,0.451L88.871,116.795z M89.617,119.657l1.728-0.451
		l1.732,6.639l-1.727,0.451L89.617,119.657z"/>
	<path fill="#FFFFFF" d="M94.077,119.713l-1.234,0.465l-0.46-1.223l1.234-0.464l-0.338-0.898c-0.484-1.284-0.099-2.454,1.223-2.951
		c0.424-0.16,0.921-0.276,1.273-0.323l0.384,1.436c-0.183-0.031-0.445-0.088-0.808,0.048c-0.561,0.211-0.552,0.764-0.364,1.262
		l0.3,0.798l1.459-0.549l0.46,1.222l-1.458,0.55l1.957,5.199l-1.671,0.629L94.077,119.713z"/>
	<path fill="#FFFFFF" d="M96.704,114.013l1.588-0.814l0.778,1.518l-1.589,0.814L96.704,114.013z M98.053,116.645l1.589-0.814
		l3.13,6.105l-1.588,0.814L98.053,116.645z"/>
	<path fill="#FFFFFF" d="M109.342,117.291c-0.334,0.666-0.843,1.243-1.633,1.787c-1.865,1.284-3.692,0.957-4.969-0.897
		c-1.126-1.635-1.188-3.582,0.567-4.79c2.096-1.443,3.679-0.414,5.038,1.562l-3.906,2.689c0.692,0.865,1.685,0.942,2.595,0.315
		c0.714-0.491,1.146-1.177,1.484-1.862L109.342,117.291z M106.246,114.909c-0.535-0.683-1.287-1.07-2.11-0.504
		s-0.847,1.424-0.392,2.227L106.246,114.909z"/>
	<path fill="#FFFFFF" d="M114.618,112.095l-0.02,0.019c0.095,0.848-0.235,1.555-0.829,2.147c-1.488,1.488-3.26,0.81-4.588-0.519
		c-1.337-1.338-1.978-3.071-0.488-4.56c0.631-0.631,1.29-0.857,2.129-0.772l0.019-0.019l-2.778-2.779l1.263-1.263l7.063,7.067
		l-1.225,1.224L114.618,112.095z M113.139,112.933c0.839-0.838,0.227-1.997-0.461-2.685c-0.678-0.679-1.865-1.226-2.676-0.415
		c-0.819,0.819-0.15,1.94,0.499,2.591C111.17,113.093,112.31,113.762,113.139,112.933z"/>
</g>
<g>
	<path fill="#FFFFFF" d="M48.631,109.008l-3.32,2.979l-1.123-1.254l6.922-6.211l1.564,1.742c1.377,1.504,1.889,3.045,0.57,4.234
		c-0.805,0.717-2.385,0.834-3.529-0.24C49.316,109.881,48.631,109.008,48.631,109.008z M48.979,108.717l0.213,0.215
		c1.113,1.055,2.182,0.896,2.871,0.275c0.971-0.873,0.551-1.951,0.014-2.547c-0.309-0.346-0.318-0.363-0.367-0.363
		c-0.047-0.004-0.049,0.018-0.412,0.344L48.979,108.717z"/>
	<path fill="#FFFFFF" d="M48.584,108.988c-0.256,1.23-0.588,3.055-1.133,5.379l1.301,1.451c0.584-2.549,1.254-5.52,1.254-5.52
		l-0.662-0.977L48.584,108.988z"/>
</g>
<g>
	<polygon fill="#FFFFFF" points="55.771,120.818 54.191,119.684 57.656,110.725 59.238,111.857 	"/>
	<polygon fill="#FFFFFF" points="50.783,117.24 49.826,116.561 57.656,110.725 58.537,111.355 	"/>
	<polygon fill="#FFFFFF" points="52.447,115.33 55.283,117.367 55.871,116.547 53.037,114.516 	"/>
</g>
<g>
	<path fill="#1A1A1A" d="M68.093,125.515c-0.694-0.069-1.431-0.182-2.098-0.412c-2.847-0.979-4.335-3.083-3.312-6.056
		c1.036-3.011,3.456-4.066,6.441-3.039c0.579,0.2,1.309,0.577,1.864,1.051l-0.638,1.443c-0.537-0.608-1.111-0.904-1.741-1.121
		c-1.814-0.624-3.425,0.371-4.045,2.173c-0.615,1.788,0.029,3.518,1.906,4.164c0.692,0.238,1.563,0.368,2.053,0.298L68.093,125.515z
		"/>
	<path fill="#1A1A1A" d="M75.902,126.541c-0.698,0.261-1.464,0.336-2.413,0.195c-2.24-0.332-3.354-1.816-3.023-4.044
		c0.291-1.963,1.572-3.43,3.681-3.117c2.517,0.372,2.973,2.204,2.621,4.576l-4.691-0.695c-0.083,1.105,0.59,1.839,1.684,2
		c0.856,0.127,1.642-0.08,2.355-0.352L75.902,126.541z M75.261,122.689c0.074-0.865-0.212-1.661-1.2-1.808s-1.591,0.465-1.805,1.362
		L75.261,122.689z"/>
	<path fill="#1A1A1A" d="M78.476,120.181l1.585,0.004l-0.003,1.559h0.026c0.081-0.64,0.816-1.717,1.882-1.715
		c0.174,0.001,0.36,0.001,0.546,0.055l-0.004,1.799c-0.159-0.094-0.479-0.147-0.799-0.148c-1.452-0.004-1.456,1.809-1.458,2.794
		l-0.006,2.518l-1.785-0.004L78.476,120.181z"/>
	<path fill="#1A1A1A" d="M84.853,121.246l-1.307,0.18l-0.179-1.293l1.307-0.18l-0.187-1.359l1.69-0.811l0.265,1.927l1.57-0.217
		l0.179,1.294l-1.571,0.216l0.437,3.167c0.079,0.581,0.313,1.101,0.985,1.008c0.316-0.044,0.611-0.151,0.779-0.296l0.245,1.392
		c-0.354,0.157-0.757,0.266-1.284,0.339c-1.386,0.19-2.27-0.563-2.454-1.908L84.853,121.246z"/>
	<path fill="#1A1A1A" d="M88.421,116.332l1.732-0.429l0.41,1.654l-1.732,0.43L88.421,116.332z M89.132,119.203l1.732-0.43
		l1.65,6.659l-1.732,0.43L89.132,119.203z"/>
	<path fill="#1A1A1A" d="M93.5,119.343l-1.24,0.447l-0.442-1.229l1.24-0.446l-0.324-0.903c-0.465-1.291-0.063-2.455,1.266-2.934
		c0.426-0.153,0.925-0.262,1.278-0.304l0.362,1.44c-0.182-0.033-0.444-0.095-0.808,0.036c-0.564,0.203-0.563,0.755-0.383,1.257
		l0.288,0.802l1.467-0.527l0.442,1.228l-1.467,0.528l1.882,5.227l-1.68,0.604L93.5,119.343z"/>
	<path fill="#1A1A1A" d="M96.132,113.718l1.602-0.788l0.752,1.53l-1.602,0.788L96.132,113.718z M97.437,116.371l1.602-0.787
		l3.028,6.156l-1.602,0.787L97.437,116.371z"/>
	<path fill="#1A1A1A" d="M108.627,117.27c-0.346,0.66-0.865,1.228-1.665,1.756c-1.89,1.249-3.71,0.888-4.951-0.99
		c-1.095-1.655-1.121-3.603,0.657-4.778c2.122-1.403,3.685-0.345,5.008,1.655l-3.956,2.616c0.676,0.878,1.666,0.975,2.588,0.364
		c0.723-0.478,1.169-1.155,1.519-1.834L108.627,117.27z M105.577,114.831c-0.522-0.693-1.267-1.096-2.101-0.544
		c-0.833,0.551-0.873,1.408-0.433,2.219L105.577,114.831z"/>
	<path fill="#1A1A1A" d="M113.927,112.249l-0.02,0.019c0.076,0.85-0.269,1.549-0.874,2.13c-1.52,1.456-3.276,0.74-4.575-0.615
		c-1.31-1.366-1.913-3.112-0.394-4.568c0.645-0.618,1.309-0.83,2.146-0.728l0.019-0.019l-2.719-2.837l1.288-1.235l6.914,7.213
		l-1.251,1.198L113.927,112.249z M112.431,113.056c0.855-0.82,0.268-1.991-0.405-2.693c-0.663-0.692-1.838-1.264-2.665-0.472
		c-0.837,0.803-0.192,1.938,0.443,2.601C110.459,113.175,111.584,113.867,112.431,113.056z"/>
</g>
<g>
	<path fill="#1A1A1A" d="M48.412,108.441l-3.371,2.92l-1.102-1.273l7.031-6.09l1.533,1.768c1.35,1.527,1.832,3.08,0.496,4.248
		c-0.82,0.703-2.4,0.789-3.525-0.303C49.082,109.326,48.412,108.441,48.412,108.441z M48.766,108.158l0.207,0.219
		c1.096,1.074,2.166,0.932,2.867,0.322c0.986-0.855,0.584-1.939,0.059-2.543c-0.303-0.35-0.313-0.367-0.361-0.373
		c-0.049-0.004-0.047,0.018-0.418,0.338L48.766,108.158z"/>
	<path fill="#1A1A1A" d="M48.363,108.424c-0.273,1.223-0.639,3.045-1.225,5.357l1.275,1.471c0.629-2.535,1.35-5.494,1.35-5.494
		l-0.645-0.988L48.363,108.424z"/>
</g>
<g>
	<polygon fill="#1A1A1A" points="55.338,120.379 53.779,119.221 57.398,110.32 58.961,111.48 	"/>
	<polygon fill="#1A1A1A" points="50.412,116.713 49.469,116.016 57.398,110.32 58.27,110.967 	"/>
	<polygon fill="#1A1A1A" points="52.111,114.836 54.912,116.918 55.516,116.111 52.715,114.029 	"/>
</g>
<g>
	<path fill="#1A1A1A" d="M75.374,100.518c-0.498-0.323-1.115-0.461-1.787-0.461c-1.566,0-2.552,1.225-2.552,2.745
		c0,1.041,0.718,1.88,1.814,1.88c0.295,0,0.488,0,0.636-0.065l0.359-1.704h-1.363l0.212-1.013H75.3l-0.736,3.51
		c-0.378,0.156-1.097,0.285-1.723,0.285c-1.889,0-3.151-0.866-3.151-2.855c0-2.35,1.539-3.796,3.86-3.796
		c0.719,0,1.474,0.102,2.146,0.359L75.374,100.518z"/>
	<path fill="#1A1A1A" d="M81.113,102.811c0,1.668-1.151,2.884-2.828,2.884c-1.346,0-2.156-0.829-2.156-2.165
		c0-1.584,1.216-2.801,2.81-2.801C80.22,100.729,81.113,101.503,81.113,102.811z M79.823,102.82c0-0.617-0.212-1.133-0.939-1.133
		c-0.977,0-1.465,1.077-1.465,1.935c0,0.626,0.258,1.114,0.967,1.114C79.345,104.736,79.823,103.631,79.823,102.82z"/>
	<path fill="#1A1A1A" d="M83.038,98.675h1.235l-1.465,6.909h-1.235L83.038,98.675z"/>
	<path fill="#1A1A1A" d="M90.003,98.675l-1.28,5.859c-0.074,0.405-0.147,0.811-0.175,1.05h-1.151l0.119-0.7h-0.019
		c-0.368,0.516-0.829,0.811-1.548,0.811c-1.123,0-1.63-0.939-1.63-1.972c0-1.418,0.773-2.994,2.386-2.994
		c0.608,0,1.078,0.23,1.465,0.673l0.599-2.727H90.003z M85.608,103.612c0,0.479,0.147,1.124,0.756,1.124
		c0.902,0,1.438-1.05,1.438-1.926c0-0.553-0.268-1.123-0.894-1.123C86.023,101.688,85.608,102.903,85.608,103.612z"/>
</g>
<g>
	<path fill="#FFFFFF" d="M118.955,84.807l0.329-4.569l0.692,0.05c2.522,2.08,3.258,3.726,5.034,3.854
		c0.849,0.062,1.66-0.296,1.728-1.224c0.041-0.58-0.303-1.1-0.705-1.129c-0.357-0.025-0.34,0.357-0.787,0.326
		c-0.335-0.024-0.54-0.297-0.517-0.621c0.033-0.458,0.465-0.686,0.878-0.656c1.095,0.079,1.596,1.384,1.53,2.3
		c-0.095,1.317-0.92,2.336-2.339,2.234c-1.922-0.139-2.449-2.479-4.599-4.295l-0.167,2.324c-0.094,1.307,0.684,0.802,0.642,1.382
		l-0.015,0.201L118.955,84.807z"/>
	<path fill="#FFFFFF" d="M118.423,86.759c0.065-0.363,0.43-0.616,0.793-0.551c0.364,0.066,0.617,0.431,0.552,0.794
		c-0.066,0.363-0.431,0.616-0.794,0.551C118.609,87.487,118.356,87.123,118.423,86.759z"/>
	<path fill="#FFFFFF" d="M125.111,90.814l0.221,1.738l-0.177,0.625l-6.554-1.846c-0.831-0.234-0.505,0.882-1.098,0.715l-0.194-0.055
		l0.82-2.911l0.193,0.055c0.593,0.167-0.261,0.927,0.569,1.161l5.573,1.569l0.322-1.143L125.111,90.814z"/>
</g>
<g>
	<path fill="#231815" d="M119.021,84.261l0.263-4.573l0.693,0.04c2.553,2.042,3.312,3.679,5.089,3.782
		c0.85,0.049,1.656-0.319,1.71-1.248c0.033-0.581-0.318-1.095-0.722-1.118c-0.357-0.021-0.334,0.361-0.781,0.336
		c-0.336-0.02-0.545-0.289-0.526-0.613c0.026-0.458,0.455-0.692,0.869-0.668c1.096,0.063,1.615,1.36,1.563,2.277
		c-0.075,1.319-0.887,2.35-2.307,2.269c-1.923-0.111-2.484-2.442-4.659-4.229l-0.134,2.326c-0.075,1.308,0.695,0.792,0.661,1.373
		l-0.012,0.201L119.021,84.261z"/>
	<path fill="#231815" d="M119.078,87.006c0.364,0.06,0.726-0.198,0.786-0.563c0.061-0.365-0.198-0.726-0.563-0.786
		s-0.726,0.198-0.786,0.563S118.714,86.945,119.078,87.006z"/>
	<path fill="#231815" d="M125.263,90.179l0.245,1.734l-0.167,0.627l-6.58-1.752c-0.834-0.222-0.492,0.889-1.087,0.73l-0.195-0.052
		l0.778-2.922l0.194,0.052c0.596,0.158-0.247,0.931,0.586,1.152l5.596,1.49l0.305-1.147L125.263,90.179z"/>
</g>
<g>
	<path fill="#FFFFFF" d="M43.879,68.364l-0.427,2.181c-0.847,0.334-1.583,0.642-2.208,0.922c-0.624,0.281-1.272,0.592-1.944,0.932
		l-0.166,0.848l2.558,0.5c0.133,0.026,0.254,0.028,0.362,0.006s0.202-0.096,0.282-0.222c0.04-0.063,0.088-0.177,0.144-0.343
		c0.057-0.166,0.098-0.308,0.125-0.424l0.398,0.078l-0.666,3.404l-0.398-0.078c0.01-0.092,0.022-0.225,0.036-0.4
		c0.015-0.175,0.014-0.299-0.004-0.373c-0.027-0.123-0.084-0.219-0.169-0.288c-0.086-0.069-0.202-0.119-0.351-0.148l-5.865-1.147
		c-0.133-0.026-0.255-0.03-0.365-0.013c-0.11,0.018-0.206,0.091-0.286,0.22c-0.053,0.087-0.108,0.204-0.166,0.349
		c-0.059,0.145-0.102,0.27-0.13,0.374l-0.398-0.078l0.73-3.733c0.066-0.342,0.165-0.656,0.294-0.943
		c0.13-0.286,0.296-0.536,0.5-0.749c0.198-0.206,0.435-0.355,0.708-0.447s0.583-0.105,0.931-0.037
		c0.313,0.062,0.58,0.163,0.802,0.305c0.221,0.142,0.401,0.324,0.54,0.544c0.131,0.203,0.232,0.437,0.306,0.7
		s0.123,0.548,0.15,0.854c0.606-0.296,1.116-0.542,1.528-0.736c0.413-0.194,0.915-0.433,1.507-0.716
		c0.261-0.123,0.459-0.242,0.594-0.355s0.25-0.231,0.345-0.351c0.069-0.089,0.131-0.206,0.187-0.349
		c0.057-0.143,0.096-0.264,0.119-0.362L43.879,68.364z M37.263,70.19c-0.489-0.096-0.904-0.031-1.246,0.196
		c-0.342,0.226-0.563,0.597-0.664,1.111l-0.19,0.973l3.466,0.678l0.146-0.75c0.104-0.526,0.021-0.998-0.246-1.415
		C38.262,70.568,37.84,70.303,37.263,70.19z"/>
	<path fill="#FFFFFF" d="M39.775,58.199c-0.039,0.102-0.079,0.258-0.122,0.469c-0.042,0.21-0.05,0.393-0.022,0.548
		c0.03,0.157,0.165,0.313,0.402,0.468c0.238,0.155,0.543,0.311,0.915,0.468l3.311,1.396c0.422,0.178,0.752,0.42,0.989,0.726
		s0.396,0.643,0.477,1.013c0.074,0.363,0.088,0.718,0.04,1.065s-0.131,0.663-0.251,0.948c-0.192,0.456-0.424,0.836-0.693,1.142
		c-0.271,0.306-0.559,0.537-0.864,0.692c-0.305,0.153-0.614,0.234-0.928,0.244c-0.314,0.01-0.614-0.045-0.9-0.166l-4.501-1.899
		c-0.125-0.053-0.238-0.076-0.34-0.07c-0.102,0.006-0.215,0.057-0.34,0.153c-0.088,0.069-0.178,0.168-0.268,0.296
		c-0.089,0.128-0.157,0.236-0.202,0.323l-0.374-0.158l1.33-3.153l0.374,0.158c-0.038,0.101-0.074,0.232-0.109,0.395
		c-0.035,0.162-0.055,0.284-0.06,0.365c-0.008,0.139,0.029,0.249,0.112,0.332s0.184,0.149,0.302,0.199l4.203,1.773
		c0.204,0.086,0.428,0.154,0.67,0.203c0.242,0.05,0.487,0.049,0.736-0.002c0.256-0.057,0.497-0.179,0.723-0.366
		c0.227-0.187,0.428-0.49,0.604-0.909c0.166-0.394,0.243-0.75,0.23-1.07c-0.012-0.319-0.088-0.599-0.227-0.839
		c-0.131-0.228-0.289-0.417-0.475-0.567s-0.385-0.27-0.6-0.36l-3.12-1.317c-0.397-0.167-0.733-0.275-1.01-0.325
		c-0.275-0.049-0.477-0.036-0.602,0.041c-0.142,0.087-0.283,0.228-0.424,0.421c-0.141,0.194-0.239,0.346-0.294,0.457l-0.375-0.158
		l1.307-3.095L39.775,58.199z"/>
	<path fill="#FFFFFF" d="M46.942,54.678c0.27-0.109,0.557-0.157,0.864-0.142c0.308,0.014,0.617,0.126,0.93,0.334
		c0.319,0.213,0.55,0.468,0.692,0.764c0.143,0.295,0.216,0.605,0.219,0.929c0.003,0.315-0.047,0.634-0.151,0.958
		s-0.254,0.631-0.448,0.921l-2.171,3.248l-0.338-0.226c0.046-0.082,0.107-0.204,0.186-0.367c0.079-0.163,0.125-0.286,0.139-0.37
		c0.022-0.13,0.009-0.242-0.039-0.334c-0.047-0.093-0.131-0.179-0.25-0.259l-4.939-3.301c-0.109-0.073-0.22-0.119-0.328-0.138
		c-0.109-0.019-0.227,0.01-0.353,0.086c-0.113,0.065-0.224,0.15-0.33,0.253c-0.106,0.103-0.19,0.193-0.251,0.271l-0.338-0.226
		l2.119-3.171c0.164-0.245,0.346-0.463,0.544-0.656c0.198-0.192,0.427-0.349,0.685-0.47c0.24-0.115,0.498-0.169,0.773-0.162
		s0.552,0.103,0.829,0.288c0.242,0.162,0.428,0.349,0.559,0.562c0.131,0.213,0.211,0.444,0.241,0.692
		c0.029,0.234,0.024,0.477-0.015,0.728c-0.039,0.25-0.109,0.503-0.209,0.758l0.042,0.028c0.154-0.181,0.351-0.368,0.589-0.561
		C46.431,54.923,46.681,54.777,46.942,54.678z M45.13,55.157c-0.059-0.212-0.155-0.396-0.288-0.553
		c-0.134-0.156-0.313-0.31-0.539-0.461c-0.378-0.252-0.742-0.347-1.095-0.284c-0.352,0.063-0.676,0.316-0.973,0.76
		c-0.069,0.103-0.153,0.234-0.253,0.393c-0.1,0.16-0.183,0.293-0.251,0.402l2.638,1.762l0.409-0.613
		c0.177-0.264,0.294-0.512,0.352-0.746C45.188,55.583,45.188,55.364,45.13,55.157z M47.752,55.941
		c-0.404-0.27-0.826-0.355-1.269-0.256c-0.441,0.099-0.831,0.401-1.169,0.907c-0.138,0.206-0.252,0.382-0.342,0.527
		s-0.156,0.254-0.201,0.327l2.403,1.606c0.202,0.135,0.409,0.155,0.622,0.059c0.212-0.095,0.416-0.29,0.612-0.583
		c0.32-0.479,0.427-0.94,0.318-1.381C48.618,56.705,48.293,56.303,47.752,55.941z"/>
	<path fill="#FFFFFF" d="M50.039,45.399c-0.043,0.05-0.097,0.144-0.161,0.28s-0.102,0.244-0.11,0.32
		c-0.038,0.173-0.058,0.297-0.059,0.371c-0.002,0.074,0.021,0.241,0.067,0.5c0.098,0.514,0.216,1.015,0.354,1.503
		c0.139,0.489,0.317,1.105,0.538,1.85c0.079,0.275,0.157,0.483,0.234,0.622c0.077,0.138,0.219,0.307,0.426,0.507l1.136,1.095
		c0.101,0.097,0.208,0.161,0.32,0.192c0.113,0.031,0.239,0.02,0.378-0.035c0.079-0.037,0.207-0.115,0.384-0.235
		c0.178-0.119,0.312-0.224,0.403-0.313l0.293,0.282l-2.68,2.778l-0.292-0.282c0.069-0.083,0.173-0.211,0.309-0.383
		s0.221-0.3,0.255-0.386c0.056-0.141,0.064-0.266,0.028-0.374s-0.107-0.213-0.214-0.315l-1.446-1.395
		c-0.044-0.043-0.152-0.094-0.323-0.155c-0.172-0.06-0.366-0.122-0.585-0.187c-0.485-0.145-1.016-0.297-1.589-0.458
		c-0.574-0.16-1.068-0.293-1.482-0.402c-0.248-0.061-0.447-0.095-0.597-0.103c-0.149-0.007-0.3,0.006-0.45,0.039
		c-0.106,0.027-0.216,0.076-0.329,0.148c-0.112,0.072-0.207,0.143-0.286,0.213l-0.292-0.282l2.446-2.537l0.292,0.282
		c-0.269,0.29-0.443,0.51-0.522,0.66c-0.079,0.15-0.088,0.254-0.026,0.313c0.017,0.017,0.055,0.037,0.112,0.061
		c0.059,0.024,0.135,0.051,0.228,0.083c0.107,0.034,0.232,0.071,0.374,0.111c0.142,0.04,0.276,0.08,0.405,0.119
		c0.374,0.109,0.75,0.215,1.128,0.317c0.377,0.102,0.869,0.235,1.477,0.398c-0.283-1.121-0.513-1.988-0.686-2.6
		c-0.173-0.612-0.298-0.956-0.376-1.03c-0.063-0.061-0.138-0.087-0.222-0.077s-0.176,0.043-0.273,0.101
		c-0.1,0.06-0.198,0.133-0.297,0.222c-0.099,0.088-0.191,0.169-0.277,0.241l-0.293-0.282l1.988-2.061L50.039,45.399z"/>
</g>
<g>
	<path fill="#FFFFFF" d="M60.815,40.079c0.22,0.37,0.341,0.74,0.364,1.111s-0.038,0.727-0.186,1.066
		c-0.144,0.337-0.342,0.64-0.595,0.907s-0.55,0.502-0.892,0.704l-0.797,0.473l1.278,2.156c0.069,0.117,0.149,0.209,0.241,0.274
		c0.091,0.066,0.211,0.086,0.358,0.062c0.074-0.012,0.193-0.053,0.358-0.124c0.164-0.07,0.311-0.142,0.439-0.214l0.208,0.349
		l-3.038,1.801l-0.207-0.349c0.075-0.054,0.184-0.133,0.323-0.239c0.141-0.105,0.232-0.189,0.276-0.251
		c0.073-0.102,0.107-0.208,0.103-0.318c-0.006-0.11-0.046-0.23-0.123-0.36l-3.043-5.13c-0.069-0.117-0.147-0.212-0.236-0.286
		s-0.209-0.098-0.359-0.072c-0.151,0.032-0.295,0.075-0.431,0.13c-0.136,0.056-0.25,0.106-0.344,0.153l-0.207-0.349l3.243-1.923
		c0.66-0.392,1.291-0.551,1.892-0.477C60.044,39.248,60.502,39.549,60.815,40.079z M60.011,42.183
		c0.021-0.227-0.002-0.437-0.066-0.629c-0.064-0.192-0.137-0.357-0.218-0.493c-0.111-0.189-0.248-0.368-0.41-0.537
		c-0.161-0.168-0.341-0.293-0.537-0.374c-0.211-0.086-0.437-0.115-0.679-0.088c-0.243,0.027-0.507,0.125-0.792,0.295l-0.71,0.421
		l1.849,3.118l0.514-0.304c0.362-0.215,0.624-0.445,0.785-0.691S59.995,42.417,60.011,42.183z"/>
	<path fill="#FFFFFF" d="M71.273,42.646l-2.078,0.79c-0.73-0.543-1.38-1.006-1.948-1.388c-0.568-0.382-1.175-0.769-1.819-1.159
		l-0.807,0.307l0.926,2.436c0.048,0.126,0.109,0.23,0.186,0.311s0.188,0.122,0.338,0.123c0.074,0,0.197-0.019,0.367-0.06
		c0.171-0.04,0.313-0.08,0.427-0.118l0.144,0.379L63.766,45.5l-0.145-0.379c0.083-0.04,0.203-0.1,0.359-0.181
		c0.156-0.08,0.262-0.146,0.315-0.2c0.089-0.088,0.142-0.187,0.155-0.296s-0.006-0.235-0.06-0.376l-2.123-5.586
		c-0.049-0.127-0.109-0.233-0.183-0.317c-0.073-0.084-0.186-0.126-0.338-0.127c-0.102,0.001-0.229,0.016-0.384,0.043
		c-0.153,0.027-0.282,0.056-0.385,0.087l-0.145-0.38l3.556-1.351c0.326-0.124,0.645-0.207,0.956-0.248s0.611-0.032,0.899,0.029
		c0.279,0.06,0.531,0.182,0.754,0.365c0.223,0.183,0.397,0.44,0.522,0.771c0.113,0.298,0.168,0.579,0.164,0.842
		c-0.003,0.263-0.063,0.512-0.177,0.747c-0.104,0.218-0.248,0.428-0.433,0.629s-0.399,0.394-0.645,0.579
		c0.571,0.358,1.049,0.661,1.432,0.909s0.851,0.548,1.404,0.901c0.242,0.157,0.447,0.262,0.615,0.316
		c0.168,0.055,0.328,0.09,0.479,0.107c0.112,0.012,0.244,0.003,0.396-0.025c0.15-0.028,0.274-0.059,0.37-0.091L71.273,42.646z
		 M66.229,37.993c-0.178-0.466-0.452-0.785-0.825-0.956c-0.372-0.17-0.804-0.163-1.294,0.024l-0.927,0.352l1.255,3.301l0.714-0.271
		c0.501-0.19,0.858-0.509,1.071-0.956C66.435,39.041,66.437,38.542,66.229,37.993z"/>
	<path fill="#FFFFFF" d="M76.347,34.28c0.419,0.319,0.771,0.728,1.059,1.227c0.286,0.499,0.481,1.07,0.583,1.714
		c0.103,0.647,0.093,1.252-0.03,1.814c-0.122,0.562-0.338,1.058-0.646,1.487c-0.297,0.424-0.665,0.774-1.104,1.047
		c-0.439,0.274-0.925,0.453-1.456,0.537c-0.566,0.09-1.105,0.066-1.619-0.07s-0.973-0.367-1.377-0.692
		c-0.403-0.317-0.745-0.726-1.026-1.226c-0.281-0.5-0.47-1.052-0.565-1.658c-0.105-0.663-0.096-1.271,0.028-1.823
		c0.124-0.552,0.338-1.047,0.642-1.484c0.3-0.433,0.672-0.786,1.116-1.061c0.445-0.274,0.927-0.453,1.447-0.536
		c0.539-0.085,1.063-0.064,1.574,0.063C75.481,33.748,75.939,33.967,76.347,34.28z M76.408,40.202
		c0.158-0.383,0.252-0.803,0.279-1.259s-0.002-0.957-0.088-1.501c-0.089-0.56-0.225-1.065-0.408-1.516
		c-0.183-0.451-0.405-0.824-0.668-1.121c-0.263-0.292-0.566-0.504-0.912-0.637c-0.347-0.132-0.725-0.166-1.133-0.101
		c-0.459,0.073-0.832,0.24-1.12,0.502s-0.505,0.585-0.651,0.97c-0.138,0.368-0.218,0.785-0.239,1.253
		c-0.022,0.467,0.006,0.95,0.085,1.449c0.088,0.553,0.217,1.043,0.387,1.473c0.17,0.429,0.389,0.799,0.657,1.11
		c0.261,0.305,0.563,0.527,0.906,0.667c0.343,0.14,0.732,0.176,1.169,0.106c0.408-0.064,0.763-0.219,1.061-0.463
		C76.031,40.891,76.256,40.58,76.408,40.202z"/>
	<path fill="#FFFFFF" d="M87.156,38.414c-0.096,0.007-0.224,0.019-0.384,0.036c-0.161,0.017-0.292,0.046-0.393,0.087
		c-0.121,0.052-0.209,0.13-0.264,0.235c-0.055,0.104-0.086,0.228-0.094,0.372l-0.033,0.641c-0.024,0.466-0.038,0.781-0.041,0.944
		c-0.002,0.164-0.003,0.298,0,0.403c-0.526,0.207-1.048,0.358-1.565,0.456c-0.517,0.098-1.021,0.134-1.512,0.108
		c-0.525-0.027-1.027-0.153-1.504-0.376s-0.888-0.527-1.231-0.911c-0.349-0.387-0.617-0.851-0.806-1.389
		c-0.189-0.539-0.267-1.134-0.232-1.786c0.032-0.628,0.166-1.206,0.401-1.732c0.234-0.526,0.551-0.977,0.95-1.353
		c0.388-0.369,0.841-0.648,1.36-0.836c0.52-0.189,1.068-0.268,1.648-0.238c0.464,0.024,0.864,0.103,1.202,0.235
		c0.338,0.132,0.634,0.285,0.889,0.457l0.258-0.382l0.469,0.024l-0.104,2.889l-0.483-0.025c-0.064-0.324-0.148-0.645-0.252-0.962
		s-0.243-0.603-0.419-0.859c-0.177-0.256-0.397-0.464-0.661-0.625c-0.265-0.161-0.586-0.251-0.965-0.271
		c-0.413-0.021-0.785,0.044-1.118,0.196c-0.334,0.152-0.629,0.389-0.885,0.711c-0.253,0.31-0.455,0.703-0.607,1.178
		s-0.244,1.01-0.275,1.604c-0.027,0.525,0.01,1.022,0.111,1.493c0.102,0.471,0.264,0.882,0.486,1.233
		c0.223,0.358,0.509,0.646,0.858,0.863c0.351,0.217,0.754,0.337,1.212,0.361c0.341,0.018,0.654-0.019,0.94-0.109
		s0.491-0.191,0.613-0.301c0.042-0.201,0.069-0.404,0.082-0.61s0.022-0.381,0.03-0.525l0.023-0.455
		c0.009-0.164-0.007-0.31-0.044-0.438c-0.038-0.129-0.125-0.226-0.261-0.292c-0.125-0.064-0.295-0.117-0.512-0.158
		s-0.387-0.068-0.51-0.083l0.021-0.406l3.62,0.189L87.156,38.414z"/>
	<path fill="#FFFFFF" d="M94.703,43.799l-2.15-0.563c-0.28-0.866-0.541-1.62-0.782-2.261c-0.241-0.641-0.511-1.308-0.809-1.999
		l-0.836-0.219l-0.659,2.521c-0.034,0.131-0.044,0.251-0.028,0.36c0.016,0.11,0.083,0.208,0.204,0.296
		c0.061,0.044,0.171,0.099,0.334,0.165c0.162,0.066,0.301,0.117,0.415,0.151l-0.103,0.393l-3.356-0.877l0.104-0.393
		c0.091,0.016,0.223,0.037,0.397,0.062c0.174,0.025,0.298,0.032,0.372,0.019c0.124-0.02,0.224-0.07,0.299-0.15
		c0.074-0.081,0.131-0.195,0.169-0.341l1.513-5.781c0.034-0.131,0.046-0.252,0.035-0.364s-0.078-0.211-0.201-0.3
		c-0.084-0.058-0.197-0.12-0.338-0.188c-0.142-0.067-0.263-0.118-0.364-0.152l0.103-0.393l3.681,0.962
		c0.337,0.088,0.644,0.206,0.922,0.353c0.277,0.147,0.517,0.329,0.716,0.546c0.193,0.211,0.327,0.456,0.402,0.734
		c0.075,0.279,0.068,0.589-0.021,0.931c-0.08,0.308-0.199,0.568-0.354,0.781c-0.155,0.212-0.348,0.38-0.577,0.505
		c-0.211,0.117-0.45,0.205-0.718,0.261c-0.267,0.057-0.554,0.089-0.86,0.097c0.258,0.624,0.471,1.147,0.639,1.572
		c0.167,0.424,0.374,0.94,0.62,1.548c0.106,0.268,0.213,0.473,0.317,0.615c0.105,0.142,0.215,0.264,0.329,0.366
		c0.085,0.074,0.196,0.144,0.336,0.208c0.14,0.065,0.258,0.112,0.354,0.141L94.703,43.799z M93.294,37.082
		c0.126-0.482,0.087-0.901-0.117-1.256c-0.204-0.355-0.561-0.599-1.067-0.732l-0.959-0.25l-0.894,3.417l0.738,0.193
		c0.52,0.136,0.995,0.083,1.428-0.157C92.854,38.055,93.146,37.65,93.294,37.082z"/>
	<path fill="#FFFFFF" d="M101.556,47.285l-3.082-1.515l0.18-0.365c0.279,0.116,0.522,0.192,0.728,0.228
		c0.204,0.036,0.326,0.015,0.363-0.062c0.016-0.031,0.031-0.071,0.047-0.121c0.015-0.049,0.024-0.094,0.027-0.136l0.203-1.97
		l-2.583-1.27c-0.219,0.196-0.403,0.371-0.554,0.522c-0.15,0.152-0.288,0.292-0.412,0.422c-0.12,0.128-0.212,0.235-0.275,0.321
		c-0.063,0.085-0.11,0.158-0.14,0.218c-0.068,0.14-0.012,0.302,0.169,0.486c0.182,0.185,0.406,0.352,0.675,0.5l-0.18,0.365
		l-2.794-1.374l0.179-0.364c0.094,0.037,0.217,0.073,0.368,0.106c0.152,0.034,0.285,0.044,0.4,0.031
		c0.185-0.025,0.341-0.071,0.468-0.136s0.271-0.17,0.434-0.315c0.828-0.746,1.752-1.588,2.77-2.526
		c1.018-0.938,1.925-1.772,2.721-2.504l0.418,0.205l-0.671,7.6c-0.015,0.162-0.009,0.3,0.016,0.416
		c0.025,0.116,0.077,0.243,0.156,0.381c0.057,0.088,0.141,0.18,0.253,0.276c0.112,0.097,0.212,0.167,0.297,0.214L101.556,47.285z
		 M100.059,42.789l0.289-3.401l-2.501,2.313L100.059,42.789z"/>
	<path fill="#FFFFFF" d="M109.201,53.542l-2.811-2.337l0.259-0.313c0.104,0.081,0.242,0.179,0.416,0.293s0.305,0.18,0.392,0.196
		c0.139,0.02,0.261,0.011,0.364-0.026c0.104-0.037,0.202-0.111,0.294-0.221l3.84-4.618l-0.067-0.056l-6.655,3.599l-0.224-0.186
		l2.52-7.227l-0.059-0.048l-3.15,3.79c-0.306,0.367-0.515,0.665-0.627,0.895s-0.155,0.426-0.129,0.589
		c0.014,0.117,0.1,0.29,0.259,0.518s0.269,0.37,0.328,0.425l-0.259,0.313L101.332,47l0.26-0.313
		c0.144,0.099,0.303,0.194,0.477,0.283c0.174,0.089,0.329,0.134,0.464,0.135c0.173,0.002,0.351-0.066,0.533-0.208
		s0.443-0.415,0.781-0.821l2.703-3.251c0.156-0.188,0.262-0.361,0.316-0.518c0.055-0.156,0.071-0.307,0.05-0.451
		c-0.025-0.157-0.09-0.312-0.191-0.462c-0.102-0.15-0.216-0.283-0.342-0.398l0.26-0.313l2.162,1.798l-2.155,6.275l4.88-2.692
		c0.179-0.099,0.354-0.211,0.527-0.337s0.283-0.215,0.331-0.266l2.076,1.727l-0.26,0.313c-0.086-0.067-0.204-0.142-0.354-0.227
		c-0.15-0.084-0.264-0.14-0.341-0.169c-0.132-0.049-0.25-0.046-0.355,0.007c-0.105,0.054-0.198,0.13-0.28,0.229l-3.81,4.582
		c-0.087,0.104-0.143,0.208-0.166,0.309s-0.007,0.222,0.051,0.36c0.029,0.075,0.103,0.182,0.219,0.322
		c0.117,0.14,0.215,0.245,0.293,0.315L109.201,53.542z"/>
	<path fill="#FFFFFF" d="M115.054,61.815l-2.106-2.988l0.332-0.234c0.079,0.105,0.187,0.235,0.325,0.391
		c0.139,0.156,0.247,0.253,0.326,0.292c0.13,0.055,0.249,0.079,0.359,0.07c0.109-0.009,0.224-0.055,0.341-0.138l4.908-3.461
		l-0.05-0.071l-7.362,1.745l-0.168-0.238l4.313-6.323l-0.044-0.062l-4.028,2.84c-0.39,0.275-0.669,0.509-0.837,0.701
		c-0.169,0.192-0.262,0.371-0.278,0.535c-0.018,0.117,0.021,0.306,0.115,0.567c0.095,0.262,0.163,0.427,0.207,0.496l-0.332,0.234
		l-1.918-2.72l0.332-0.234c0.113,0.133,0.242,0.266,0.387,0.397c0.146,0.132,0.282,0.215,0.413,0.251
		c0.166,0.048,0.356,0.027,0.569-0.062c0.213-0.088,0.535-0.285,0.967-0.589l3.456-2.437c0.199-0.141,0.346-0.28,0.439-0.417
		c0.094-0.137,0.148-0.278,0.165-0.423c0.017-0.158-0.005-0.324-0.063-0.495c-0.06-0.172-0.136-0.33-0.228-0.474l0.332-0.234
		l1.62,2.298l-3.712,5.499l5.412-1.331c0.197-0.049,0.396-0.112,0.597-0.189c0.199-0.077,0.329-0.133,0.389-0.17l1.556,2.207
		l-0.332,0.234c-0.065-0.087-0.16-0.19-0.283-0.311c-0.122-0.12-0.217-0.204-0.284-0.252c-0.114-0.081-0.229-0.109-0.345-0.085
		c-0.116,0.024-0.227,0.074-0.331,0.147l-4.869,3.434c-0.111,0.078-0.191,0.163-0.241,0.255c-0.049,0.092-0.063,0.212-0.044,0.361
		c0.009,0.08,0.051,0.202,0.127,0.368c0.077,0.165,0.144,0.292,0.201,0.38L115.054,61.815z"/>
	<path fill="#FFFFFF" d="M119.925,67.604l-2.312,0.789l-2.63-6.334l0.375-0.156c0.052,0.104,0.127,0.241,0.224,0.41
		c0.098,0.169,0.17,0.275,0.218,0.318c0.101,0.092,0.204,0.143,0.309,0.151s0.224-0.014,0.355-0.069l5.487-2.277
		c0.118-0.049,0.215-0.112,0.29-0.189s0.115-0.19,0.121-0.339c0.007-0.116-0.006-0.262-0.038-0.439
		c-0.031-0.178-0.063-0.316-0.096-0.416l0.375-0.156l2.449,5.902l-1.832,0.761l-0.168-0.404c0.237-0.183,0.456-0.456,0.657-0.819
		c0.201-0.364,0.271-0.659,0.21-0.886c-0.032-0.117-0.077-0.254-0.135-0.412c-0.057-0.157-0.126-0.335-0.208-0.532l-0.499-1.202
		l-3.001,1.246l0.358,0.863c0.114,0.277,0.225,0.469,0.329,0.575s0.238,0.183,0.399,0.23c0.137,0.036,0.303,0.046,0.499,0.03
		c0.195-0.016,0.374-0.047,0.535-0.093l0.168,0.404l-2.987,1.24l-0.168-0.404c0.166-0.086,0.331-0.2,0.496-0.342
		c0.166-0.143,0.277-0.266,0.335-0.37c0.093-0.17,0.132-0.334,0.115-0.495c-0.016-0.16-0.072-0.357-0.17-0.59l-0.358-0.864
		l-2.276,0.945c-0.228,0.095-0.401,0.186-0.52,0.272c-0.118,0.086-0.192,0.191-0.222,0.312c-0.028,0.121-0.02,0.266,0.027,0.436
		c0.048,0.169,0.133,0.402,0.256,0.699c0.049,0.118,0.113,0.274,0.194,0.467c0.08,0.193,0.154,0.353,0.224,0.479
		c0.07,0.129,0.155,0.259,0.253,0.389s0.191,0.211,0.281,0.245c0.24,0.093,0.571,0.158,0.996,0.193
		c0.424,0.036,0.729,0.045,0.914,0.026L119.925,67.604z"/>
	<path fill="#FFFFFF" d="M119.353,76.71l-0.44-2.178c0.655-0.632,1.218-1.198,1.688-1.696s0.949-1.034,1.439-1.605l-0.171-0.847
		l-2.554,0.516c-0.133,0.027-0.245,0.071-0.337,0.133s-0.15,0.166-0.176,0.313c-0.013,0.074-0.014,0.197-0.002,0.373
		c0.012,0.175,0.027,0.321,0.048,0.439l-0.398,0.08l-0.687-3.4l0.397-0.081c0.026,0.089,0.066,0.217,0.12,0.384
		c0.053,0.167,0.102,0.282,0.146,0.343c0.071,0.103,0.16,0.17,0.266,0.202c0.105,0.031,0.232,0.032,0.381,0.002l5.857-1.183
		c0.134-0.027,0.248-0.07,0.343-0.128c0.096-0.059,0.155-0.163,0.181-0.313c0.015-0.101,0.021-0.229,0.02-0.386
		s-0.009-0.288-0.022-0.395l0.397-0.081l0.754,3.729c0.068,0.341,0.098,0.669,0.088,0.983c-0.01,0.314-0.068,0.608-0.175,0.883
		c-0.104,0.266-0.266,0.494-0.483,0.684c-0.217,0.19-0.499,0.32-0.846,0.39c-0.313,0.063-0.598,0.071-0.856,0.024
		c-0.26-0.046-0.495-0.145-0.708-0.296c-0.198-0.138-0.382-0.315-0.55-0.53c-0.169-0.215-0.323-0.459-0.466-0.731
		c-0.446,0.506-0.823,0.927-1.131,1.265c-0.307,0.337-0.68,0.75-1.118,1.238c-0.193,0.213-0.331,0.398-0.412,0.555
		s-0.143,0.309-0.185,0.456c-0.029,0.109-0.043,0.24-0.039,0.394c0.003,0.154,0.013,0.28,0.029,0.38L119.353,76.71z M124.767,72.492
		c0.488-0.099,0.848-0.318,1.077-0.658c0.229-0.339,0.292-0.767,0.188-1.281l-0.196-0.971l-3.461,0.699l0.151,0.749
		c0.105,0.525,0.362,0.93,0.769,1.212C123.699,72.525,124.19,72.608,124.767,72.492z"/>
</g>
<g>
	<path d="M43.432,68.027l-0.418,2.183c-0.846,0.337-1.58,0.647-2.204,0.931c-0.623,0.283-1.271,0.597-1.94,0.939l-0.163,0.849
		l2.56,0.49c0.133,0.025,0.254,0.027,0.362,0.004s0.202-0.097,0.281-0.223c0.04-0.063,0.087-0.177,0.143-0.344
		s0.097-0.308,0.123-0.425l0.398,0.077l-0.652,3.407l-0.399-0.077c0.01-0.092,0.021-0.225,0.035-0.4s0.013-0.3-0.006-0.374
		c-0.027-0.122-0.084-0.218-0.17-0.287c-0.086-0.069-0.203-0.118-0.352-0.146l-5.869-1.125c-0.133-0.025-0.255-0.029-0.365-0.011
		s-0.205,0.091-0.285,0.221c-0.052,0.087-0.107,0.204-0.165,0.349c-0.058,0.146-0.1,0.27-0.128,0.374l-0.398-0.076l0.716-3.736
		c0.065-0.342,0.162-0.657,0.29-0.944c0.129-0.287,0.294-0.537,0.497-0.75c0.198-0.207,0.434-0.356,0.706-0.45
		c0.273-0.093,0.583-0.107,0.931-0.041c0.313,0.06,0.581,0.161,0.803,0.302s0.403,0.322,0.543,0.542
		c0.131,0.203,0.233,0.436,0.308,0.699c0.074,0.263,0.126,0.547,0.154,0.853c0.604-0.298,1.113-0.546,1.525-0.741
		c0.412-0.196,0.913-0.437,1.504-0.722c0.261-0.124,0.458-0.243,0.592-0.358c0.135-0.114,0.25-0.232,0.344-0.352
		c0.068-0.089,0.131-0.206,0.186-0.349c0.056-0.144,0.095-0.265,0.117-0.363L43.432,68.027z M36.823,69.878
		c-0.489-0.094-0.904-0.027-1.246,0.201c-0.34,0.228-0.561,0.599-0.659,1.114l-0.187,0.974l3.469,0.665l0.144-0.75
		c0.101-0.527,0.018-0.998-0.252-1.413C37.823,70.252,37.4,69.989,36.823,69.878z"/>
	<path d="M39.257,57.887c-0.038,0.103-0.077,0.259-0.118,0.47s-0.048,0.394-0.02,0.548c0.032,0.157,0.167,0.312,0.406,0.465
		s0.545,0.308,0.918,0.462l3.319,1.374c0.424,0.175,0.755,0.415,0.994,0.719c0.24,0.304,0.401,0.641,0.483,1.009
		c0.077,0.362,0.093,0.717,0.048,1.064c-0.045,0.348-0.127,0.664-0.245,0.95c-0.188,0.457-0.418,0.839-0.686,1.147
		c-0.268,0.307-0.554,0.54-0.859,0.698c-0.303,0.155-0.612,0.238-0.926,0.25s-0.614-0.041-0.901-0.16l-4.514-1.868
		c-0.125-0.052-0.239-0.075-0.341-0.068s-0.214,0.059-0.339,0.156c-0.087,0.07-0.176,0.169-0.265,0.298
		c-0.089,0.128-0.155,0.237-0.2,0.324l-0.375-0.155l1.308-3.162l0.376,0.155c-0.038,0.101-0.073,0.232-0.106,0.395
		c-0.034,0.163-0.053,0.285-0.058,0.366c-0.007,0.138,0.031,0.249,0.115,0.331c0.083,0.082,0.185,0.148,0.303,0.197l4.216,1.745
		c0.204,0.084,0.428,0.151,0.67,0.199c0.243,0.048,0.488,0.045,0.737-0.008c0.255-0.059,0.495-0.182,0.72-0.371
		c0.226-0.188,0.425-0.493,0.599-0.914c0.163-0.395,0.237-0.752,0.223-1.071c-0.015-0.32-0.092-0.599-0.232-0.838
		c-0.133-0.227-0.292-0.415-0.479-0.564c-0.186-0.148-0.387-0.267-0.602-0.356l-3.13-1.295c-0.397-0.165-0.735-0.271-1.011-0.318
		c-0.276-0.047-0.478-0.032-0.602,0.045c-0.142,0.088-0.282,0.229-0.421,0.424c-0.14,0.195-0.237,0.348-0.291,0.459l-0.376-0.155
		l1.285-3.104L39.257,57.887z"/>
	<path d="M46.388,54.33c0.268-0.111,0.556-0.161,0.863-0.149c0.308,0.012,0.618,0.121,0.932,0.328
		c0.321,0.211,0.554,0.463,0.698,0.758c0.146,0.295,0.221,0.604,0.226,0.927c0.007,0.315-0.041,0.635-0.144,0.96
		c-0.102,0.325-0.249,0.633-0.44,0.924l-2.146,3.265l-0.339-0.223c0.045-0.082,0.105-0.205,0.183-0.368
		c0.077-0.163,0.122-0.287,0.136-0.371c0.021-0.13,0.007-0.242-0.042-0.334s-0.133-0.178-0.253-0.257l-4.965-3.262
		c-0.11-0.072-0.22-0.118-0.329-0.135s-0.226,0.012-0.352,0.089c-0.113,0.067-0.223,0.152-0.328,0.256
		c-0.105,0.104-0.188,0.195-0.249,0.273L39.5,56.786l2.094-3.188c0.162-0.247,0.342-0.466,0.538-0.66
		c0.197-0.193,0.424-0.352,0.682-0.476c0.239-0.117,0.496-0.173,0.771-0.168c0.276,0.005,0.553,0.098,0.832,0.281
		c0.243,0.16,0.431,0.346,0.563,0.558c0.133,0.212,0.215,0.442,0.246,0.69c0.032,0.234,0.029,0.477-0.008,0.728
		c-0.038,0.251-0.105,0.504-0.204,0.76l0.043,0.028c0.153-0.182,0.348-0.371,0.584-0.565C45.878,54.58,46.126,54.432,46.388,54.33z
		 M44.579,54.824c-0.061-0.211-0.158-0.395-0.293-0.55s-0.315-0.308-0.543-0.457c-0.379-0.25-0.744-0.341-1.096-0.276
		c-0.352,0.065-0.675,0.321-0.968,0.767c-0.067,0.104-0.151,0.235-0.249,0.396c-0.099,0.16-0.181,0.294-0.248,0.403l2.651,1.742
		l0.404-0.616c0.175-0.265,0.29-0.515,0.346-0.749C44.641,55.25,44.639,55.03,44.579,54.824z M47.207,55.587
		c-0.406-0.267-0.829-0.349-1.271-0.247c-0.44,0.102-0.828,0.407-1.162,0.916c-0.136,0.208-0.249,0.384-0.337,0.53
		c-0.089,0.146-0.155,0.255-0.199,0.329l2.416,1.587c0.203,0.133,0.41,0.151,0.622,0.054c0.212-0.097,0.414-0.293,0.607-0.588
		c0.317-0.482,0.42-0.943,0.308-1.384C48.079,56.343,47.751,55.944,47.207,55.587z"/>
	<path d="M49.356,45.034c-0.042,0.051-0.095,0.145-0.157,0.282s-0.099,0.245-0.107,0.322c-0.035,0.174-0.053,0.298-0.054,0.372
		c0,0.074,0.024,0.241,0.074,0.5c0.104,0.513,0.229,1.012,0.374,1.499c0.145,0.487,0.332,1.101,0.562,1.843
		c0.083,0.275,0.164,0.481,0.242,0.619c0.079,0.137,0.223,0.305,0.433,0.501l1.149,1.081c0.103,0.096,0.21,0.158,0.323,0.188
		c0.113,0.03,0.239,0.017,0.377-0.04c0.078-0.038,0.205-0.118,0.381-0.24s0.309-0.228,0.399-0.318l0.296,0.278l-2.644,2.812
		l-0.296-0.278c0.069-0.084,0.171-0.213,0.304-0.387c0.134-0.173,0.218-0.303,0.25-0.39c0.054-0.142,0.062-0.266,0.024-0.374
		c-0.038-0.107-0.11-0.212-0.218-0.313l-1.464-1.376c-0.046-0.042-0.154-0.093-0.326-0.151c-0.172-0.058-0.367-0.117-0.587-0.18
		c-0.487-0.139-1.02-0.284-1.595-0.437c-0.576-0.152-1.072-0.28-1.487-0.383c-0.249-0.058-0.448-0.089-0.598-0.095
		c-0.15-0.005-0.3,0.01-0.45,0.044c-0.106,0.028-0.215,0.079-0.326,0.152s-0.206,0.146-0.284,0.217l-0.296-0.278l2.413-2.568
		l0.297,0.278c-0.266,0.293-0.437,0.516-0.515,0.666c-0.077,0.151-0.085,0.255-0.022,0.314c0.018,0.016,0.055,0.036,0.113,0.059
		s0.135,0.05,0.229,0.08c0.107,0.033,0.232,0.068,0.374,0.106c0.143,0.039,0.278,0.076,0.407,0.114
		c0.376,0.104,0.753,0.205,1.132,0.302c0.379,0.098,0.873,0.224,1.481,0.379c-0.298-1.117-0.537-1.981-0.719-2.591
		c-0.181-0.61-0.311-0.952-0.389-1.025c-0.064-0.061-0.139-0.085-0.223-0.074c-0.085,0.011-0.176,0.046-0.272,0.104
		c-0.099,0.061-0.197,0.136-0.294,0.226c-0.098,0.09-0.188,0.171-0.274,0.245L47.1,46.842l1.961-2.086L49.356,45.034z"/>
	<path d="M59.735,39.868c0.227,0.366,0.354,0.734,0.384,1.104c0.03,0.371-0.025,0.728-0.166,1.069
		c-0.138,0.339-0.331,0.646-0.579,0.917s-0.541,0.511-0.879,0.72l-0.789,0.487l1.316,2.133c0.072,0.116,0.153,0.206,0.246,0.27
		c0.092,0.064,0.212,0.083,0.359,0.055c0.074-0.013,0.193-0.057,0.355-0.13c0.164-0.073,0.309-0.147,0.437-0.222l0.214,0.346
		l-3.005,1.854l-0.214-0.346c0.074-0.055,0.181-0.136,0.319-0.245c0.139-0.108,0.229-0.193,0.271-0.256
		c0.071-0.103,0.104-0.21,0.097-0.32s-0.05-0.229-0.13-0.358l-3.132-5.076c-0.071-0.115-0.152-0.209-0.242-0.282
		s-0.21-0.094-0.36-0.065c-0.151,0.034-0.294,0.08-0.429,0.138c-0.134,0.058-0.248,0.111-0.34,0.159l-0.214-0.346l3.208-1.98
		c0.654-0.403,1.282-0.573,1.884-0.51C58.949,39.05,59.412,39.344,59.735,39.868z M58.969,41.985
		c0.016-0.227-0.011-0.436-0.078-0.628c-0.068-0.191-0.144-0.354-0.227-0.489c-0.115-0.187-0.255-0.363-0.419-0.529
		c-0.165-0.166-0.346-0.287-0.545-0.364c-0.211-0.083-0.438-0.108-0.68-0.076s-0.504,0.135-0.787,0.309l-0.702,0.434l1.904,3.085
		l0.508-0.313c0.358-0.222,0.616-0.456,0.772-0.705S58.956,42.219,58.969,41.985z"/>
	<path d="M70.34,42.224l-2.066,0.82c-0.738-0.532-1.395-0.985-1.969-1.359c-0.574-0.374-1.186-0.751-1.835-1.132l-0.803,0.318
		l0.961,2.422c0.05,0.125,0.113,0.228,0.19,0.308s0.19,0.119,0.34,0.118c0.074,0,0.196-0.022,0.366-0.064s0.312-0.084,0.425-0.125
		l0.149,0.378l-3.224,1.279l-0.15-0.377c0.083-0.042,0.202-0.103,0.357-0.186c0.154-0.083,0.259-0.151,0.312-0.205
		c0.088-0.089,0.139-0.188,0.15-0.298c0.013-0.109-0.009-0.235-0.064-0.375l-2.205-5.554c-0.05-0.126-0.112-0.231-0.187-0.314
		c-0.074-0.083-0.188-0.124-0.339-0.122c-0.103,0.003-0.23,0.02-0.384,0.049c-0.153,0.03-0.281,0.061-0.384,0.093l-0.15-0.377
		l3.536-1.403c0.324-0.128,0.642-0.216,0.952-0.262c0.311-0.046,0.61-0.041,0.9,0.016c0.28,0.056,0.533,0.174,0.759,0.354
		c0.226,0.18,0.403,0.434,0.534,0.763c0.117,0.296,0.176,0.576,0.176,0.839s-0.055,0.513-0.165,0.749
		c-0.102,0.22-0.242,0.431-0.424,0.635c-0.182,0.204-0.395,0.4-0.637,0.588c0.577,0.35,1.059,0.646,1.445,0.888
		c0.386,0.242,0.858,0.536,1.417,0.88c0.244,0.153,0.451,0.255,0.619,0.308c0.169,0.052,0.33,0.085,0.481,0.101
		c0.112,0.01,0.244-0.001,0.395-0.031c0.151-0.031,0.273-0.063,0.369-0.096L70.34,42.224z M65.228,37.645
		c-0.185-0.463-0.464-0.778-0.839-0.943c-0.375-0.165-0.807-0.151-1.294,0.042l-0.921,0.366l1.303,3.282l0.71-0.282
		c0.498-0.198,0.851-0.521,1.057-0.972C65.449,38.688,65.444,38.19,65.228,37.645z"/>
	<path d="M75.334,34.072c0.423,0.313,0.782,0.717,1.076,1.211c0.293,0.495,0.496,1.063,0.606,1.706
		c0.112,0.646,0.11,1.251-0.004,1.814c-0.115,0.563-0.323,1.062-0.626,1.496c-0.291,0.429-0.654,0.783-1.089,1.063
		c-0.436,0.28-0.918,0.466-1.448,0.558c-0.564,0.098-1.104,0.082-1.62-0.048s-0.978-0.354-1.387-0.673
		c-0.407-0.312-0.755-0.715-1.043-1.211s-0.484-1.045-0.589-1.65c-0.114-0.662-0.113-1.27,0.003-1.823s0.323-1.051,0.62-1.493
		c0.294-0.437,0.661-0.795,1.102-1.076s0.921-0.466,1.439-0.556c0.538-0.093,1.063-0.079,1.575,0.041S74.923,33.765,75.334,34.072z
		 M75.479,39.992c0.153-0.385,0.24-0.806,0.262-1.263c0.021-0.457-0.015-0.957-0.109-1.5c-0.096-0.559-0.239-1.063-0.429-1.51
		s-0.417-0.818-0.684-1.111c-0.267-0.289-0.573-0.497-0.922-0.624c-0.348-0.127-0.726-0.155-1.134-0.085
		c-0.458,0.079-0.828,0.252-1.112,0.518c-0.284,0.266-0.497,0.592-0.638,0.979c-0.133,0.37-0.207,0.789-0.223,1.256
		c-0.015,0.468,0.021,0.95,0.106,1.448c0.096,0.551,0.23,1.04,0.406,1.467s0.4,0.794,0.674,1.101
		c0.265,0.301,0.569,0.52,0.915,0.655c0.346,0.136,0.735,0.166,1.17,0.09c0.408-0.07,0.76-0.229,1.055-0.478
		C75.111,40.686,75.332,40.372,75.479,39.992z"/>
	<path d="M86.342,38.055c-0.096,0.008-0.223,0.021-0.384,0.041c-0.16,0.019-0.291,0.05-0.391,0.093
		c-0.121,0.054-0.208,0.133-0.261,0.238c-0.054,0.105-0.083,0.229-0.089,0.373l-0.024,0.641c-0.019,0.466-0.028,0.781-0.028,0.945
		c-0.001,0.163,0.001,0.297,0.005,0.403c-0.524,0.213-1.044,0.372-1.559,0.477c-0.516,0.104-1.02,0.147-1.511,0.128
		c-0.526-0.021-1.029-0.139-1.509-0.356s-0.895-0.515-1.244-0.894c-0.354-0.383-0.628-0.842-0.824-1.378
		c-0.195-0.537-0.281-1.131-0.256-1.783c0.024-0.629,0.15-1.208,0.378-1.738c0.229-0.529,0.539-0.984,0.934-1.366
		c0.382-0.374,0.832-0.659,1.349-0.854c0.517-0.195,1.064-0.282,1.645-0.26c0.464,0.018,0.866,0.091,1.206,0.219
		c0.339,0.128,0.637,0.277,0.894,0.446l0.254-0.386l0.468,0.018l-0.065,2.89l-0.483-0.019c-0.069-0.324-0.157-0.644-0.265-0.959
		s-0.251-0.6-0.431-0.854c-0.18-0.253-0.403-0.459-0.67-0.616c-0.267-0.157-0.589-0.243-0.968-0.258
		c-0.413-0.016-0.785,0.054-1.116,0.211s-0.622,0.397-0.875,0.722c-0.248,0.314-0.445,0.709-0.592,1.187
		c-0.146,0.477-0.23,1.013-0.254,1.608c-0.02,0.525,0.023,1.022,0.132,1.492c0.107,0.47,0.275,0.878,0.503,1.226
		c0.227,0.355,0.517,0.639,0.869,0.852c0.354,0.212,0.759,0.327,1.217,0.345c0.341,0.013,0.654-0.027,0.939-0.122
		c0.285-0.094,0.488-0.197,0.608-0.309c0.039-0.201,0.063-0.405,0.074-0.611c0.01-0.206,0.018-0.381,0.022-0.525l0.019-0.455
		c0.006-0.164-0.011-0.31-0.051-0.438c-0.039-0.128-0.127-0.224-0.264-0.288c-0.126-0.063-0.297-0.113-0.514-0.151
		c-0.218-0.038-0.389-0.063-0.512-0.076l0.017-0.406l3.622,0.141L86.342,38.055z"/>
	<path d="M93.978,43.333l-2.158-0.532c-0.292-0.862-0.563-1.612-0.813-2.25c-0.251-0.637-0.529-1.3-0.837-1.987l-0.839-0.207
		l-0.624,2.53c-0.032,0.131-0.04,0.251-0.023,0.361c0.017,0.11,0.086,0.208,0.208,0.293c0.062,0.043,0.173,0.097,0.336,0.16
		c0.164,0.064,0.303,0.112,0.418,0.145l-0.097,0.395L86.18,41.41l0.097-0.394c0.092,0.014,0.225,0.033,0.398,0.056
		s0.299,0.028,0.373,0.014c0.124-0.021,0.223-0.073,0.296-0.155s0.129-0.196,0.165-0.343l1.43-5.802
		c0.033-0.132,0.043-0.253,0.031-0.364c-0.013-0.111-0.081-0.21-0.206-0.296c-0.085-0.057-0.198-0.118-0.34-0.183
		c-0.143-0.065-0.265-0.114-0.367-0.147l0.098-0.395l3.693,0.911c0.338,0.083,0.647,0.197,0.927,0.34
		c0.28,0.143,0.521,0.321,0.724,0.535c0.196,0.208,0.334,0.452,0.413,0.729s0.076,0.588-0.009,0.931
		c-0.076,0.31-0.19,0.571-0.343,0.786c-0.153,0.214-0.343,0.386-0.57,0.514c-0.21,0.12-0.447,0.211-0.714,0.271
		c-0.267,0.061-0.553,0.097-0.859,0.109c0.267,0.62,0.487,1.141,0.66,1.562c0.174,0.422,0.389,0.935,0.644,1.54
		c0.109,0.267,0.219,0.47,0.325,0.61c0.107,0.141,0.219,0.261,0.334,0.361c0.086,0.073,0.199,0.141,0.339,0.204
		c0.141,0.063,0.26,0.108,0.356,0.136L93.978,43.333z M92.474,36.636c0.119-0.484,0.074-0.902-0.135-1.255
		c-0.21-0.352-0.569-0.591-1.078-0.716l-0.962-0.237l-0.846,3.429l0.742,0.183c0.521,0.128,0.995,0.069,1.424-0.177
		S92.333,37.207,92.474,36.636z"/>
	<path d="M101.073,46.872l-3.089-1.5l0.178-0.365c0.28,0.114,0.523,0.189,0.729,0.224s0.326,0.013,0.363-0.064
		c0.016-0.031,0.03-0.071,0.046-0.121c0.015-0.049,0.024-0.094,0.027-0.136l0.194-1.971l-2.589-1.258
		c-0.218,0.197-0.401,0.373-0.552,0.524c-0.149,0.153-0.286,0.294-0.41,0.424c-0.119,0.128-0.21,0.236-0.273,0.322
		s-0.109,0.159-0.139,0.219c-0.068,0.14-0.011,0.302,0.171,0.485c0.183,0.184,0.408,0.35,0.677,0.498l-0.178,0.365l-2.801-1.36
		l0.178-0.365c0.094,0.037,0.217,0.072,0.369,0.105c0.151,0.033,0.285,0.042,0.399,0.029c0.185-0.026,0.341-0.073,0.468-0.138
		c0.126-0.065,0.271-0.171,0.432-0.317c0.825-0.75,1.745-1.596,2.759-2.538s1.916-1.781,2.709-2.517l0.418,0.203l-0.635,7.602
		c-0.015,0.162-0.009,0.3,0.018,0.416c0.025,0.116,0.078,0.243,0.157,0.38c0.057,0.088,0.142,0.18,0.254,0.275
		c0.113,0.096,0.213,0.167,0.298,0.212L101.073,46.872z M99.556,42.383l0.273-3.402l-2.49,2.325L99.556,42.383z"/>
	<path d="M108.742,53.092l-2.823-2.323l0.258-0.314c0.104,0.081,0.243,0.177,0.418,0.291c0.174,0.114,0.305,0.179,0.392,0.195
		c0.14,0.019,0.261,0.01,0.364-0.028c0.104-0.038,0.202-0.112,0.293-0.223l3.816-4.638l-0.067-0.055l-6.637,3.633l-0.226-0.185
		l2.483-7.239l-0.059-0.048l-3.132,3.806c-0.304,0.368-0.511,0.667-0.622,0.897s-0.153,0.427-0.126,0.589
		c0.014,0.118,0.102,0.29,0.262,0.517c0.16,0.228,0.271,0.369,0.331,0.423l-0.259,0.313l-2.569-2.114l0.258-0.314
		c0.144,0.099,0.304,0.192,0.478,0.281c0.175,0.088,0.33,0.132,0.465,0.133c0.173,0.002,0.351-0.068,0.533-0.21
		c0.182-0.142,0.44-0.417,0.775-0.825l2.688-3.265c0.155-0.189,0.26-0.362,0.313-0.519c0.054-0.157,0.069-0.307,0.047-0.451
		c-0.025-0.157-0.09-0.311-0.192-0.46c-0.104-0.15-0.218-0.282-0.345-0.396l0.259-0.313l2.171,1.786l-2.123,6.286l4.866-2.717
		c0.178-0.1,0.353-0.213,0.525-0.34c0.172-0.127,0.282-0.216,0.33-0.268l2.085,1.715l-0.259,0.314
		c-0.086-0.066-0.205-0.141-0.355-0.225c-0.15-0.083-0.264-0.139-0.341-0.167c-0.132-0.048-0.25-0.045-0.355,0.009
		c-0.104,0.055-0.198,0.131-0.279,0.23l-3.786,4.601c-0.086,0.105-0.141,0.208-0.164,0.31c-0.023,0.102-0.006,0.222,0.053,0.36
		c0.029,0.075,0.103,0.182,0.221,0.321c0.117,0.139,0.216,0.244,0.294,0.314L108.742,53.092z"/>
	<path d="M114.662,61.317l-2.13-2.971l0.33-0.237c0.08,0.104,0.189,0.234,0.328,0.388c0.14,0.155,0.249,0.251,0.329,0.289
		c0.13,0.054,0.249,0.077,0.359,0.067s0.224-0.057,0.34-0.14l4.882-3.499l-0.052-0.071l-7.348,1.802l-0.17-0.236l4.263-6.356
		l-0.044-0.062l-4.006,2.872c-0.389,0.278-0.666,0.514-0.832,0.708c-0.167,0.194-0.259,0.373-0.274,0.537
		c-0.017,0.117,0.024,0.306,0.12,0.566c0.097,0.261,0.167,0.426,0.211,0.494l-0.33,0.237L108.699,53l0.33-0.237
		c0.114,0.132,0.244,0.264,0.391,0.395c0.146,0.13,0.284,0.213,0.414,0.248c0.167,0.046,0.356,0.024,0.569-0.066
		c0.212-0.09,0.532-0.29,0.962-0.597l3.437-2.463c0.199-0.143,0.345-0.283,0.437-0.421c0.093-0.138,0.146-0.279,0.162-0.424
		c0.016-0.158-0.008-0.324-0.068-0.495c-0.061-0.171-0.137-0.329-0.23-0.472l0.33-0.237l1.639,2.285l-3.669,5.528l5.401-1.373
		c0.197-0.051,0.396-0.115,0.595-0.193s0.329-0.136,0.388-0.174l1.573,2.195l-0.33,0.236c-0.066-0.086-0.162-0.189-0.286-0.308
		c-0.123-0.119-0.219-0.203-0.286-0.25c-0.115-0.081-0.23-0.108-0.346-0.083s-0.226,0.076-0.329,0.15l-4.843,3.472
		c-0.11,0.079-0.19,0.165-0.238,0.257c-0.049,0.092-0.063,0.212-0.042,0.361c0.009,0.08,0.053,0.202,0.13,0.367
		c0.078,0.165,0.146,0.291,0.204,0.379L114.662,61.317z"/>
	<path d="M119.572,67.069l-2.307,0.804l-2.671-6.316l0.374-0.159c0.052,0.104,0.128,0.24,0.227,0.408
		c0.098,0.168,0.171,0.274,0.219,0.317c0.102,0.091,0.205,0.141,0.31,0.149s0.224-0.016,0.355-0.072l5.472-2.313
		c0.118-0.05,0.214-0.114,0.289-0.192c0.074-0.078,0.114-0.191,0.119-0.339c0.005-0.116-0.008-0.263-0.041-0.44
		s-0.065-0.315-0.1-0.415l0.375-0.158l2.488,5.886l-1.827,0.773l-0.171-0.403c0.236-0.184,0.453-0.458,0.652-0.823
		c0.198-0.365,0.267-0.661,0.203-0.888c-0.033-0.117-0.078-0.254-0.137-0.411c-0.058-0.157-0.128-0.333-0.212-0.531l-0.507-1.198
		l-2.993,1.266l0.364,0.861c0.117,0.276,0.228,0.468,0.334,0.573c0.104,0.106,0.238,0.182,0.4,0.228
		c0.137,0.035,0.303,0.044,0.499,0.027c0.196-0.018,0.374-0.049,0.535-0.096l0.17,0.403l-2.979,1.26l-0.171-0.403
		c0.165-0.087,0.33-0.202,0.494-0.345c0.164-0.144,0.275-0.268,0.332-0.372c0.092-0.17,0.13-0.335,0.112-0.495
		s-0.075-0.356-0.174-0.589l-0.364-0.861l-2.27,0.96c-0.228,0.096-0.4,0.188-0.519,0.276c-0.118,0.087-0.19,0.192-0.219,0.313
		c-0.028,0.121-0.019,0.266,0.03,0.435c0.048,0.169,0.135,0.401,0.26,0.697c0.05,0.118,0.115,0.273,0.197,0.466
		c0.081,0.192,0.157,0.352,0.228,0.478c0.071,0.129,0.156,0.258,0.255,0.387c0.099,0.128,0.192,0.209,0.283,0.243
		c0.24,0.092,0.572,0.154,0.997,0.187c0.424,0.033,0.729,0.04,0.914,0.02L119.572,67.069z"/>
	<path d="M119.039,76.176L118.59,74c0.652-0.635,1.212-1.204,1.68-1.704s0.945-1.038,1.433-1.611l-0.175-0.846l-2.552,0.527
		c-0.133,0.027-0.244,0.072-0.336,0.134c-0.092,0.063-0.15,0.167-0.175,0.314c-0.013,0.073-0.013,0.197,0,0.372
		s0.029,0.321,0.05,0.439l-0.398,0.082l-0.701-3.397l0.397-0.083c0.026,0.089,0.066,0.217,0.121,0.384
		c0.054,0.167,0.104,0.281,0.148,0.343c0.072,0.103,0.161,0.169,0.267,0.2s0.232,0.031,0.381,0.001l5.853-1.209
		c0.133-0.027,0.247-0.071,0.342-0.129c0.095-0.059,0.154-0.163,0.179-0.313c0.015-0.101,0.021-0.23,0.019-0.386
		c-0.002-0.156-0.011-0.288-0.024-0.395l0.397-0.082l0.77,3.726c0.07,0.341,0.102,0.669,0.093,0.983
		c-0.008,0.314-0.065,0.609-0.171,0.884c-0.104,0.267-0.264,0.495-0.48,0.686s-0.498,0.322-0.844,0.394
		c-0.313,0.064-0.598,0.074-0.857,0.028c-0.259-0.045-0.495-0.143-0.709-0.293c-0.198-0.137-0.383-0.313-0.552-0.527
		c-0.17-0.214-0.326-0.458-0.469-0.729c-0.445,0.507-0.82,0.931-1.125,1.269c-0.306,0.338-0.677,0.752-1.113,1.243
		c-0.192,0.214-0.329,0.4-0.41,0.557c-0.08,0.157-0.142,0.31-0.182,0.457c-0.029,0.109-0.042,0.24-0.038,0.394
		s0.015,0.28,0.031,0.38L119.039,76.176z M124.435,71.934c0.488-0.101,0.847-0.322,1.074-0.663c0.228-0.34,0.288-0.768,0.183-1.281
		l-0.2-0.971l-3.459,0.714l0.155,0.748c0.108,0.525,0.366,0.928,0.773,1.209S123.859,72.053,124.435,71.934z"/>
</g>
</svg>
